<?xml version="1.0" encoding="UTF-8" standalone="no"?>
<!-- Created with Inkscape (http://www.inkscape.org/) -->

<svg
   width="512"
   height="512"
   viewBox="0 0 512 512"
   version="1.1"
   id="svg1"
   xml:space="preserve"
   xmlns="http://www.w3.org/2000/svg"
   xmlns:svg="http://www.w3.org/2000/svg"
   xmlns:rdf="http://www.w3.org/1999/02/22-rdf-syntax-ns#"
   xmlns:cc="http://creativecommons.org/ns#"
   xmlns:dc="http://purl.org/dc/elements/1.1/"><title
     id="title1">flocky</title><defs
     id="defs1" /><g
     id="layer1"><path
       style="fill:#000000;fill-opacity:0;stroke:#000000;stroke-width:7.6722;stroke-linecap:round;stroke-dasharray:3.83613, 3.83613"
       id="path6"
       d="M 71.128318,427.62918 A 252.15427,252.24413 0 0 1 84.244244,71.394255 252.15427,252.24413 0 0 1 440.37033,84.014519 252.15427,252.24413 0 0 1 428.25475,440.28489 252.15427,252.24413 0 0 1 72.094626,428.66538" /><path
       style="fill:#ffffff;fill-opacity:1;stroke:#000000;stroke-width:7.6722;stroke-linecap:round;stroke-dasharray:3.83613, 3.83613;stroke-opacity:0"
       id="path6-2"
       d="M 71.127326,427.6293 A 252.15427,252.24413 0 0 1 84.243252,71.394377 252.15427,252.24413 0 0 1 440.36934,84.014641 252.15427,252.24413 0 0 1 428.25376,440.28502 252.15427,252.24413 0 0 1 72.093634,428.6655" /></g><g
     id="layer2"
     style="fill:none"
     transform="translate(15.247262,-36.172964)"><ellipse
       style="fill:#000000;stroke-width:1.32464"
       id="path3"
       cx="98.722656"
       cy="230.19443"
       rx="25.10651"
       ry="35.50079"
       transform="matrix(0.98719603,-0.15951178,0.14504649,0.98942484,0,0)" /><ellipse
       style="fill:#000000;stroke-width:1.23925"
       id="path3-5"
       cx="410.59735"
       cy="109.06059"
       rx="23.336687"
       ry="33.427597"
       transform="matrix(0.96353614,0.26757822,-0.30905449,0.95104433,0,0)" /><path
       style="fill:none;stroke:#000000;stroke-width:3.36878;stroke-linecap:round;stroke-dasharray:1.68439, 1.68439;stroke-dashoffset:0;stroke-opacity:1"
       d="m 123.25924,265.12914 c 36.14208,20.98369 45.35436,-12.15493 45.35436,-12.15493"
       id="path1" /><path
       style="fill:none;stroke:#000000;stroke-width:3.36878;stroke-linecap:round;stroke-dasharray:1.6844, 1.6844;stroke-dashoffset:0"
       d="m 320.9239,252.0793 c 19.49319,36.82281 48.37834,14.34189 48.37834,14.34189"
       id="path1-1" /><path
       style="fill:#000000;stroke-width:0.935771;paint-order:normal"
       d="m 190.87912,253.29482 36.02969,221.80491 86.96821,-256.76329 -83.241,195.28476 z"
       id="path4" /></g><metadata
     id="metadata1"><rdf:RDF><cc:Work
         rdf:about=""><dc:title>flocky</dc:title></cc:Work></rdf:RDF></metadata></svg>
